<svg version="1.2" xmlns="http://www.w3.org/2000/svg" viewBox="0 0 204 47" width="204" height="47">
	<title>iPhone 6, 7, 8 Plus – 1</title>
	<defs>
		<clipPath clipPathUnits="userSpaceOnUse" id="cp1">
			<path d="m-10-36h414v736h-414z"/>
		</clipPath>
		<linearGradient id="g1" x2="1" gradientUnits="userSpaceOnUse" gradientTransform="matrix(5.505,-9.469,11.431,6.646,20.194,31.648)">
			<stop offset="0" stop-color="#fcfdfe"/>
			<stop offset=".317" stop-color="#eeeeee"/>
			<stop offset=".4" stop-color="#efefef"/>
			<stop offset="1" stop-color="#fbfbfb"/>
		</linearGradient>
		<linearGradient id="g2" x2="1" gradientUnits="userSpaceOnUse" gradientTransform="matrix(19.139,-32.919,32.919,19.139,12.819,38.981)">
			<stop offset="0" stop-color="#fcfdfe"/>
			<stop offset=".317" stop-color="#eeeeee"/>
			<stop offset=".4" stop-color="#efefef"/>
			<stop offset="1" stop-color="#fbfbfb"/>
		</linearGradient>
	</defs>
	<style>
		.s0 { fill: url(#g1) } 
		.s1 { fill: url(#g2) } 
		.s2 { fill: #f0f0f0 } 
	</style>
	<g id="iPhone 6, 7, 8 Plus – 1" clip-path="url(#cp1)">
		<g id="Nieuw symbool 4">
			<g id="Group 8">
				<g id="-e-">
					<g id="Group 3">
						<g id="Group 2">
							<g id="group4">
								<path id="Path 1" class="s0" d="m14.7 28l7.7-7.7 7.6 7.6-1.2 1.2-6.4-6.5-6.5 6.5z"/>
								<path id="Path 2" fill-rule="evenodd" class="s1" d="m0.4 22.5l22-22 22 22-22 22zm2.3 0l19.7 19.7 19.7-19.7-19.7-19.6z"/>
							</g>
						</g>
					</g>
					<g id="group6">
						<g id="Group 4">
							<path id="Path 3" class="s2" d="m54 35.1c1.1 0 2 0.4 2.8 1.1q0.1 0.1 0 0.2l-0.2 0.2q-0.1 0.1-0.2 0c-0.7-0.6-1.5-1-2.4-1-2.1 0-3.7 1.7-3.7 3.7 0 2 1.6 3.7 3.7 3.7 1 0 1.7-0.4 2.4-1q0.1-0.1 0.2 0l0.2 0.2c0.1 0 0.1 0.1 0 0.2-0.8 0.7-1.8 1.1-2.8 1.1-2.4 0-4.3-1.8-4.3-4.2 0-2.3 1.9-4.2 4.3-4.2z"/>
							<path id="Path 4" fill-rule="evenodd" class="s2" d="m62.2 40.4c0.6 0 1.1 0.1 1.2 0.2 0-1-0.1-1.5-1-1.5-0.8 0-1.3 0.2-1.4 0.3q-0.1 0-0.2-0.1v-0.2c-0.1-0.1 0-0.1 0-0.1 0.1-0.1 0.7-0.4 1.6-0.4 1.4 0 1.5 0.9 1.5 2.1v2.5c0 0.1-0.1 0.2-0.1 0.2h-0.2q-0.1 0-0.1-0.1l-0.1-0.5c-0.3 0.3-0.8 0.7-1.6 0.7-0.9 0-1.5-0.6-1.5-1.5 0-0.9 0.7-1.6 1.9-1.6zm-0.3 2.7c0.7 0 1.3-0.5 1.5-0.8v-1.3c-0.1 0-0.6-0.2-1.2-0.2-0.8 0-1.4 0.5-1.4 1.1 0 0.7 0.4 1.2 1.1 1.2z"/>
							<path id="Path 5" class="s2" d="m68 38.9c0-0.1 0.1-0.2 0.1-0.2h0.2q0.1 0 0.1 0.2l0.1 0.4c0.1-0.1 0.6-0.7 1.4-0.7 0.4 0 0.6 0.1 0.7 0.2q0.2 0 0.2 0.2l-0.1 0.2q-0.1 0.1-0.2 0.1c-0.1-0.1-0.3-0.2-0.6-0.2-0.9 0-1.4 0.8-1.4 0.8v3.3q0 0.2-0.1 0.2h-0.3q-0.1 0-0.1-0.2z"/>
							<path id="Path 6" class="s2" d="m74 36.1c0-0.3 0.2-0.4 0.4-0.4 0.2 0 0.4 0.1 0.4 0.4 0 0.2-0.2 0.4-0.4 0.4-0.2 0-0.4-0.2-0.4-0.4zm0.1 2.8c0-0.1 0.1-0.2 0.2-0.2h0.2c0.1 0 0.1 0.1 0.1 0.2v4.3q0 0.2-0.1 0.2h-0.2q-0.2 0-0.2-0.2z"/>
							<path id="Path 7" class="s2" d="m78.8 38.9q0-0.2 0.1-0.2h0.1q0.2 0 0.2 0.2v0.4c0.2-0.1 0.8-0.7 1.7-0.7 1.4 0 1.9 0.8 1.9 2.1v2.5c0 0.1 0 0.2-0.1 0.2h-0.2c-0.1 0-0.2-0.1-0.2-0.2v-2.5c0-1-0.5-1.6-1.4-1.6-0.9 0-1.6 0.8-1.6 0.8v3.3q0 0.2-0.2 0.2h-0.2q-0.1 0-0.1-0.2z"/>
							<path id="Path 8" fill-rule="evenodd" class="s2" d="m87.2 41.8c-0.1-0.2-0.4-0.7-0.4-1.2 0-1.1 0.8-2 2.1-2h1.9q0.1 0 0.1 0.2v0.1c0 0.1 0 0.1-0.1 0.1l-0.8 0.1c0.2 0.1 0.7 0.5 0.7 1.5 0 1-0.7 1.9-1.9 1.9-0.7 0-1.2-0.2-1.3-0.4-0.1 0-0.6 0.3-0.6 0.8 0 0.6 0.5 0.7 0.9 0.7h1.7c1 0 1.7 0.5 1.7 1.5 0 1-0.9 1.9-2.3 1.9-1.6 0-2.3-0.9-2.3-1.7 0-0.7 0.5-1.1 0.7-1.2-0.2-0.1-0.9-0.4-0.9-1.1 0-0.8 0.7-1.2 0.8-1.2zm1.6 4.7c1.1 0 1.9-0.6 1.9-1.4 0-0.5-0.3-1-1.2-1h-1.5c-0.1 0-0.9 0.3-0.9 1.1 0 0.7 0.6 1.3 1.7 1.3zm1.4-5.9c0-1-0.7-1.5-1.4-1.5-0.9 0-1.5 0.6-1.5 1.5 0 0.8 0.5 1.5 1.5 1.5 0.8 0 1.4-0.7 1.4-1.5z"/>
							<path id="Path 9" class="s2" d="m99.4 36.1c0-0.3 0.1-0.4 0.4-0.4 0.2 0 0.4 0.1 0.4 0.4 0 0.2-0.2 0.4-0.4 0.4-0.3 0-0.4-0.2-0.4-0.4zm0.1 2.8c0-0.1 0.1-0.2 0.2-0.2h0.2c0.1 0 0.1 0.1 0.1 0.2v4.3q0 0.2-0.1 0.2h-0.3q-0.1 0-0.1-0.2z"/>
							<path id="Path 10" class="s2" d="m103.9 42.8l0.1-0.2c0 0 0.1 0 0.2 0 0.1 0.1 0.6 0.5 1.3 0.5 0.6 0 1.1-0.4 1.1-0.9 0-0.5-0.6-0.7-1.3-1-0.9-0.3-1.5-0.7-1.5-1.4 0-0.5 0.5-1.2 1.6-1.2 0.6 0 1 0.2 1.3 0.4 0 0 0.1 0.1 0 0.2v0.1c-0.1 0.1-0.2 0.1-0.3 0.1-0.1-0.1-0.5-0.3-1-0.3-0.8 0-1 0.4-1 0.7 0 0.5 0.4 0.7 1.1 0.9 0.8 0.4 1.6 0.7 1.6 1.5 0 0.7-0.7 1.3-1.6 1.3-0.8 0-1.3-0.3-1.6-0.5 0-0.1-0.1-0.1 0-0.2z"/>
							<path id="Path 11" class="s2" d="m115.6 36.1c0-0.3 0.1-0.4 0.4-0.4 0.2 0 0.4 0.1 0.4 0.4 0 0.2-0.2 0.4-0.4 0.4-0.3 0-0.4-0.2-0.4-0.4zm0.1 2.8c0-0.1 0.1-0.2 0.2-0.2h0.2c0 0 0.1 0.1 0.1 0.2v4.3q0 0.2-0.1 0.2h-0.3q-0.1 0-0.1-0.2z"/>
							<path id="Path 12" class="s2" d="m120.3 38.9q0-0.2 0.2-0.2h0.1q0.1 0 0.2 0.2v0.4c0.2-0.1 0.8-0.7 1.7-0.7 1.3 0 1.9 0.8 1.9 2.1v2.5c0 0.1-0.1 0.2-0.2 0.2h-0.2c0 0-0.1-0.1-0.1-0.2v-2.5c0-1-0.5-1.6-1.4-1.6-1 0-1.6 0.8-1.7 0.8v3.3q0 0.2-0.1 0.2h-0.2q-0.2 0-0.2-0.2z"/>
							<path id="Path 13" fill-rule="evenodd" class="s2" d="m135.3 38.6c1.3 0 2.4 1.1 2.4 2.4 0 1.4-1.1 2.5-2.4 2.5-1.3 0-2.3-1.1-2.3-2.5 0-1.3 1-2.4 2.3-2.4zm0 4.4c1.1 0 1.9-0.8 1.9-2 0-1-0.8-1.9-1.9-1.9-1 0-1.8 0.9-1.8 1.9 0 1.2 0.8 2 1.8 2z"/>
							<path id="Path 14" class="s2" d="m141.4 38.9c0-0.1 0.1-0.2 0.1-0.2h0.3c0 0 0.1 0.1 0.1 0.2v2.5c0 1.1 0.5 1.6 1.4 1.6 1 0 1.5-0.7 1.5-0.8v-3.3q0-0.2 0.2-0.2h0.2c0.1 0 0.1 0.1 0.1 0.2v4.3c0 0.1 0 0.2-0.1 0.2h-0.1q-0.2 0-0.2-0.1v-0.5c-0.2 0.2-0.7 0.7-1.6 0.7-1.3 0-1.9-0.8-1.9-2.1z"/>
							<path id="Path 15" class="s2" d="m149.5 38.9c0-0.1 0.1-0.2 0.1-0.2h0.2q0.1 0 0.1 0.2l0.1 0.4c0.1-0.1 0.5-0.7 1.4-0.7 0.4 0 0.6 0.1 0.7 0.2q0.2 0 0.2 0.2l-0.1 0.2q-0.1 0.1-0.2 0.1c-0.1-0.1-0.3-0.2-0.6-0.2-0.9 0-1.4 0.8-1.4 0.8v3.3q0 0.2-0.2 0.2h-0.2q-0.1 0-0.1-0.2z"/>
							<path id="Path 16" class="s2" d="m160.5 38.9q0-0.2 0.2-0.2h0.1q0.1 0 0.1 0.2l0.1 0.4c0.1-0.1 0.8-0.7 1.7-0.7 1.3 0 1.9 0.8 1.9 2.1v2.5c0 0.1-0.1 0.2-0.2 0.2h-0.2c-0.1 0-0.2-0.1-0.2-0.2v-2.5c0-1-0.5-1.6-1.3-1.6-1 0-1.7 0.8-1.7 0.8v3.3q0 0.2-0.2 0.2h-0.2q-0.1 0-0.1-0.2z"/>
							<path id="Path 17" fill-rule="evenodd" class="s2" d="m170.2 40.4c0.5 0 1.1 0.1 1.2 0.2 0-1-0.1-1.5-1-1.5-0.8 0-1.3 0.2-1.4 0.3q-0.2 0-0.2-0.1l-0.1-0.2c0-0.1 0-0.1 0.1-0.1 0-0.1 0.6-0.4 1.6-0.4 1.4 0 1.5 0.9 1.5 2.1v2.5c0 0.1-0.1 0.2-0.2 0.2h-0.1q-0.1 0-0.2-0.1v-0.5c-0.3 0.3-0.9 0.7-1.6 0.7-0.9 0-1.5-0.6-1.5-1.5 0-0.9 0.7-1.6 1.9-1.6zm-0.4 2.7c0.7 0 1.4-0.5 1.6-0.8v-1.3c-0.2 0-0.6-0.2-1.2-0.2-0.9 0-1.5 0.5-1.5 1.1 0 0.7 0.5 1.2 1.1 1.2z"/>
							<path id="Path 18" class="s2" d="m176.2 39.2h-0.6q-0.1 0-0.1-0.2v-0.1q0-0.2 0.1-0.2h0.6v-1.2q0-0.2 0.1-0.2h0.2c0.1 0 0.2 0.1 0.2 0.2v1.2h1.6q0.1 0 0.1 0.2v0.1q0 0.2-0.1 0.2h-1.6v3c0 0.5 0 0.8 0.6 0.8 0.4 0 0.9-0.2 1-0.3 0.1-0.1 0.2 0 0.2 0l0.1 0.2q0.1 0.1 0 0.2c-0.2 0.1-0.7 0.4-1.4 0.4-1 0-1-0.6-1-1.3z"/>
							<path id="Path 19" class="s2" d="m182.1 38.9c0-0.1 0.1-0.2 0.1-0.2h0.2c0.1 0 0.2 0.1 0.2 0.2v2.5c0 1.1 0.5 1.6 1.4 1.6 0.9 0 1.5-0.7 1.5-0.8v-3.3q0-0.2 0.2-0.2h0.2c0.1 0 0.1 0.1 0.1 0.2v4.3c0 0.1 0 0.2-0.1 0.2h-0.2q-0.1 0-0.1-0.1v-0.5c-0.2 0.2-0.7 0.7-1.7 0.7-1.3 0-1.8-0.8-1.8-2.1z"/>
							<path id="Path 20" class="s2" d="m190.2 38.9c0-0.1 0-0.2 0.1-0.2h0.2q0.1 0 0.1 0.2v0.4c0.2-0.1 0.6-0.7 1.5-0.7 0.4 0 0.6 0.1 0.7 0.2q0.2 0 0.2 0.2l-0.1 0.2q-0.1 0.1-0.2 0.1c-0.1-0.1-0.3-0.2-0.6-0.2-0.9 0-1.4 0.8-1.4 0.8v3.3q0 0.2-0.2 0.2h-0.2q-0.1 0-0.1-0.2z"/>
							<path id="Path 21" fill-rule="evenodd" class="s2" d="m198.2 38.6c1.2 0 2.1 0.9 2.1 2.1 0 0.2 0 0.5-0.1 0.5h-3.8c0.1 1 0.8 1.8 1.9 1.8 0.6 0 1.1-0.2 1.3-0.4 0.1-0.1 0.2-0.1 0.2 0l0.2 0.2q0 0.1-0.1 0.2c-0.2 0.2-1 0.5-1.7 0.5-1.4 0-2.3-1.1-2.3-2.5 0-1.3 0.9-2.4 2.3-2.4zm1.6 2.2c0-0.9-0.5-1.7-1.6-1.7-1 0-1.7 0.7-1.7 1.7z"/>
						</g>
						<g id="Group 5">
							<path id="Path 22" class="s2" d="m60.5 31.6h-2.2l-4.2-12.3 0.3-0.4h3.6v-8.4h-5.2v21.1h-2v-22.9h7.6q0.7 0 1.2 0.5 0.4 0.5 0.4 1.2v8.6q0 1.7-2.2 1.7-0.2 0-0.6 0-0.5-0.1-0.7-0.1 2 5.5 4 11z"/>
							<path id="Path 23" fill-rule="evenodd" class="s2" d="m71.2 29.9q0 1.7-1.6 1.7h-4.7q-1.6 0-1.6-1.7v-10.9q0-1.6 1.6-1.6h4.7q1.6 0 1.6 1.6v5.1l-0.7 0.7h-5.4v5.2h4.2v-2.7h1.9zm-1.9-6.6v-4.3h-4.2v4.3z"/>
							<path id="Path 24" fill-rule="evenodd" class="s2" d="m82.4 31.6h-1.9v-0.4q-1.1 0.1-2.3 0.3-1.4 0.2-2.3 0.2-1.6 0-1.6-1.6v-5.2q0-1.6 1.7-1.6h4.5v-4.3h-4.1v2.4h-1.9v-2.4q0-1.6 1.6-1.6h4.7q1.6 0 1.6 1.6zm-1.9-1.7v-5.1h-4.3v5.2z"/>
							<path id="Path 25" class="s2" d="m87.6 31.6h-1.9v-22.9h1.9z"/>
							<path id="Path 26" class="s2" d="m104.5 31.6h-7.5v-22.9h7.4v1.8h-5.4v8.6h4.9v1.8h-4.9v8.9h5.5z"/>
							<path id="Path 27" class="s2" d="m115.1 29.9q0 1.7-1.7 1.7h-4.4q-1.7 0-1.7-1.7v-3.2h1.9v3.2h4v-2.8l-5.1-4.2q-0.7-0.6-0.7-1.5v-2.4q0-1.6 1.6-1.6h4.4q1.6 0 1.6 1.6v2.9h-1.8v-2.8h-4v2.4l5.1 4.2q0.8 0.6 0.8 1.5z"/>
							<path id="Path 28" class="s2" d="m123.2 31.6h-2.7q-1.6 0-1.6-1.7v-10.8h-1.8v-1.7h1.8v-4.4h1.9v4.4h2.4v1.7h-2.4v10.8h2.4z"/>
							<path id="Path 29" fill-rule="evenodd" class="s2" d="m133.7 31.6h-1.9v-0.4q-1.1 0.1-2.3 0.3-1.4 0.2-2.3 0.2-1.6 0-1.6-1.6v-5.2q0-1.6 1.7-1.6h4.6v-4.3h-4.2v2.4h-1.9v-2.4q0-1.6 1.6-1.6h4.7q1.6 0 1.6 1.6zm-1.8-1.7v-5.1h-4.4v5.2z"/>
							<path id="Path 30" class="s2" d="m142 31.6h-2.7q-1.7 0-1.7-1.7v-10.8h-1.7v-1.7h1.7v-4.4h1.9v4.4h2.5v1.7h-2.5v10.8h2.5z"/>
							<path id="Path 31" fill-rule="evenodd" class="s2" d="m152.4 29.9q0 1.7-1.6 1.7h-4.7q-1.6 0-1.6-1.7v-10.9q0-1.6 1.6-1.6h4.7q1.6 0 1.6 1.6v5.1l-0.6 0.7h-5.4v5.2h4.2v-2.7h1.8zm-1.8-6.6v-4.3h-4.2v4.3z"/>
							<path id="Path 32" class="s2" d="m170.9 30q0 0.7-0.5 1.1-0.5 0.5-1.2 0.5h-5.9q-0.7 0-1.1-0.5-0.5-0.4-0.5-1.1v-19.6q0-0.7 0.5-1.2 0.4-0.5 1.1-0.5h5.9q0.7 0 1.2 0.5 0.5 0.5 0.5 1.2v5.3h-2.1v-5.2h-5.1v19.3h5.1v-5.6h2.1z"/>
							<path id="Path 33" fill-rule="evenodd" class="s2" d="m182.2 31.6h-1.9v-0.4q-1.2 0.1-2.3 0.3-1.5 0.2-2.3 0.2-1.6 0-1.6-1.6v-5.2q0-1.6 1.6-1.6h4.6v-4.3h-4.2v2.4h-1.8v-2.4q0-1.6 1.6-1.6h4.6q1.7 0 1.7 1.6zm-1.9-1.7v-5.1h-4.3v5.2z"/>
							<path id="Path 34" class="s2" d="m192.8 22h-1.9v-2.9l-3.6 0.1v12.4h-1.9v-14.2h1.9v0.4q1-0.2 1.9-0.3 1.2-0.2 2-0.2 1.6 0 1.6 1.6z"/>
							<path id="Path 35" fill-rule="evenodd" class="s2" d="m203.2 29.9q0 1.7-1.7 1.7h-4.6q-1.7 0-1.7-1.7v-10.9q0-1.6 1.7-1.6h4.6q1.7 0 1.7 1.6v5.1l-0.7 0.7h-5.4v5.2h4.2v-2.7h1.9zm-1.9-6.6v-4.3h-4.2v4.3z"/>
						</g>
					</g>
				</g>
			</g>
		</g>
	</g>
</svg>